<svg width="24" height="24" viewBox="0 0 24 24" fill="none" xmlns="http://www.w3.org/2000/svg">
<path d="M6.70372 13.5L2.99707 16.5V4.5C2.99707 4.30109 3.076 4.11032 3.21649 3.96967C3.35698 3.82902 3.54753 3.75 3.74621 3.75H15.7325C15.9312 3.75 16.1217 3.82902 16.2622 3.96967C16.4027 4.11032 16.4816 4.30109 16.4816 4.5V12.75C16.4816 12.9489 16.4027 13.1397 16.2622 13.2803C16.1217 13.421 15.9312 13.5 15.7325 13.5H6.70372Z" stroke="#FF9F0D" stroke-width="1.5" stroke-linecap="round" stroke-linejoin="round"/>
<path d="M7.49121 13.5V17.25C7.49121 17.4489 7.57014 17.6397 7.71063 17.7803C7.85112 17.921 8.04167 18 8.24035 18H17.2691L20.9757 21V9C20.9757 8.80109 20.8968 8.61032 20.7563 8.46967C20.6158 8.32902 20.4253 8.25 20.2266 8.25H16.4809" stroke="#FF9F0D" stroke-width="1.5" stroke-linecap="round" stroke-linejoin="round"/>
</svg>
