<svg width="21" height="14" viewBox="0 0 21 14" fill="none" xmlns="http://www.w3.org/2000/svg">
<path d="M10.125 2.8125C9.73828 2.84766 9.35156 2.88281 9 2.98828C9.17578 3.26953 9.24609 3.62109 9.28125 3.9375C9.28125 5.02734 8.36719 5.90625 7.3125 5.90625C6.96094 5.90625 6.60938 5.83594 6.36328 5.66016C6.25781 6.01172 6.1875 6.36328 6.1875 6.75C6.1875 8.92969 7.94531 10.6875 10.125 10.6875C12.3047 10.6875 14.0625 8.92969 14.0625 6.75C14.0625 4.60547 12.3047 2.84766 10.125 2.84766V2.8125ZM20.1094 6.25781C18.2109 2.53125 14.4141 0 10.125 0C5.80078 0 2.00391 2.53125 0.105469 6.25781C0.0351562 6.39844 0 6.57422 0 6.75C0 6.96094 0.0351562 7.13672 0.105469 7.27734C2.00391 11.0039 5.80078 13.5 10.125 13.5C14.4141 13.5 18.2109 11.0039 20.1094 7.27734C20.1797 7.13672 20.2148 6.96094 20.2148 6.78516C20.2148 6.57422 20.1797 6.39844 20.1094 6.25781ZM10.125 11.8125C6.64453 11.8125 3.44531 9.87891 1.75781 6.75C3.44531 3.62109 6.64453 1.6875 10.125 1.6875C13.5703 1.6875 16.7695 3.62109 18.457 6.75C16.7695 9.87891 13.5703 11.8125 10.125 11.8125Z" fill="white"/>
</svg>
