<svg width="14" height="13" viewBox="0 0 14 13" fill="none" xmlns="http://www.w3.org/2000/svg">
<path d="M13.4805 4.41556L9.22246 3.83491L7.31442 0.20358C7.27323 0.141348 7.21564 0.0899725 7.14713 0.0543393C7.07863 0.0187061 7.00148 0 6.92303 0C6.84458 0 6.76743 0.0187061 6.69892 0.0543393C6.63042 0.0899725 6.57283 0.141348 6.53164 0.20358L4.62359 3.83491L0.365563 4.41556C0.288558 4.42354 0.215542 4.45164 0.154935 4.49663C0.094329 4.54162 0.0486024 4.60166 0.0230299 4.66983C-0.00254259 4.738 -0.00691915 4.81152 0.0104051 4.88191C0.0277293 4.95229 0.0660485 5.01668 0.120943 5.06765L3.21947 7.89945L2.48398 11.9047C2.47399 11.9783 2.48606 12.053 2.51885 12.1205C2.55165 12.1881 2.60388 12.2458 2.66976 12.2874C2.73564 12.329 2.81258 12.3527 2.89206 12.356C2.97153 12.3593 3.05043 12.342 3.11999 12.306L6.92303 10.4272L10.7261 12.3045C10.7956 12.3404 10.8745 12.3578 10.954 12.3545C11.0335 12.3512 11.1104 12.3275 11.1763 12.2859C11.2422 12.2443 11.2944 12.1866 11.3272 12.119C11.36 12.0514 11.3721 11.9767 11.3621 11.9032L10.6315 7.90097L13.73 5.06917C13.7849 5.0182 13.8232 4.95381 13.8405 4.88343C13.8579 4.81304 13.8535 4.73952 13.8279 4.67135C13.8023 4.60318 13.7566 4.54314 13.696 4.49815C13.6354 4.45316 13.5624 4.42506 13.4854 4.41708L13.4805 4.41556Z" fill="#FF9F0D"/>
</svg>
