<svg width="24" height="24" viewBox="0 0 24 24" fill="none" xmlns="http://www.w3.org/2000/svg">
<path d="M11.9859 15C14.0546 15 15.7316 13.3211 15.7316 11.25C15.7316 9.17893 14.0546 7.5 11.9859 7.5C9.91724 7.5 8.24023 9.17893 8.24023 11.25C8.24023 13.3211 9.91724 15 11.9859 15Z" stroke="#FF9F0D" stroke-width="1.5" stroke-miterlimit="10"/>
<path d="M5.97461 18.6913C6.53891 17.5806 7.39921 16.6478 8.46029 15.9963C9.52136 15.3448 10.7418 15 11.9865 15C13.2313 15 14.4517 15.3448 15.5128 15.9963C16.5739 16.6478 17.4342 17.5806 17.9985 18.6913" stroke="#FF9F0D" stroke-width="1.5" stroke-linecap="round" stroke-linejoin="round"/>
<path d="M16.4814 5.25H20.9763" stroke="#FF9F0D" stroke-width="1.5" stroke-linecap="round" stroke-linejoin="round"/>
<path d="M18.7285 3V7.5" stroke="#FF9F0D" stroke-width="1.5" stroke-linecap="round" stroke-linejoin="round"/>
<path d="M20.8647 10.5804C21.1622 12.456 20.859 14.3776 19.9984 16.07C19.1378 17.7623 17.7641 19.1384 16.0742 20.0009C14.3842 20.8635 12.4649 21.1681 10.5914 20.8713C8.71783 20.5744 6.98629 19.6912 5.64501 18.3484C4.30373 17.0056 3.42159 15.2721 3.12506 13.3964C2.82854 11.5207 3.13287 9.59917 3.99441 7.90731C4.85594 6.21546 6.23045 4.84015 7.92086 3.97858C9.61126 3.11701 11.5308 2.81342 13.4041 3.11134" stroke="#FF9F0D" stroke-width="1.5" stroke-linecap="round" stroke-linejoin="round"/>
</svg>
