<svg width="21" height="21" viewBox="0 0 21 21" fill="none" xmlns="http://www.w3.org/2000/svg">
<path d="M10.3592 14.918L14.3026 17.4212C14.8112 17.742 15.4372 17.2648 15.2885 16.6781L14.1462 12.1878C14.1153 12.0634 14.1202 11.9327 14.1603 11.8109C14.2005 11.6891 14.2742 11.5811 14.3731 11.4994L17.9097 8.55025C18.3713 8.16694 18.1366 7.39249 17.5341 7.35338L12.9177 7.05611C12.7918 7.04878 12.6707 7.00493 12.5692 6.92991C12.4678 6.85489 12.3904 6.75196 12.3465 6.63368L10.6252 2.29989C10.5796 2.17465 10.4966 2.06647 10.3874 1.99002C10.2783 1.91357 10.1482 1.87256 10.0149 1.87256C9.88159 1.87256 9.75153 1.91357 9.64235 1.99002C9.53316 2.06647 9.45016 2.17465 9.40459 2.29989L7.68323 6.63368C7.63936 6.75196 7.56198 6.85489 7.46054 6.92991C7.35911 7.00493 7.23801 7.04878 7.11205 7.05611L2.49569 7.35338C1.89321 7.39249 1.65848 8.16694 2.12012 8.55025L5.65672 11.4994C5.75557 11.5811 5.82932 11.6891 5.86946 11.8109C5.90961 11.9327 5.91452 12.0634 5.88363 12.1878L4.82734 16.3495C4.64738 17.0536 5.39852 17.6246 6.001 17.2413L9.67062 14.918C9.77352 14.8525 9.89294 14.8178 10.0149 14.8178C10.1368 14.8178 10.2563 14.8525 10.3592 14.918V14.918Z" fill="#FF9F0D"/>
</svg>
