<svg width="17" height="16" viewBox="0 0 17 16" fill="none" xmlns="http://www.w3.org/2000/svg">
<path d="M8.48221 13.0454L12.4257 15.5487C12.9343 15.8694 13.5602 15.3922 13.4116 14.8055L12.2692 10.3153C12.2383 10.1908 12.2432 10.0601 12.2834 9.93835C12.3235 9.81655 12.3973 9.70858 12.4961 9.62686L16.0327 6.67769C16.4943 6.29438 16.2596 5.51993 15.6571 5.48082L11.0408 5.18355C10.9148 5.17623 10.7937 5.13237 10.6923 5.05735C10.5908 4.98234 10.5135 4.8794 10.4696 4.76113L8.74824 0.427336C8.70267 0.302096 8.61966 0.193908 8.51048 0.117458C8.4013 0.0410084 8.27123 0 8.13794 0C8.00464 0 7.87457 0.0410084 7.76539 0.117458C7.65621 0.193908 7.5732 0.302096 7.52764 0.427336L5.80628 4.76113C5.76241 4.8794 5.68503 4.98234 5.58359 5.05735C5.48216 5.13237 5.36106 5.17623 5.2351 5.18355L0.618732 5.48082C0.0162566 5.51993 -0.218474 6.29438 0.243163 6.67769L3.77977 9.62686C3.87862 9.70858 3.95237 9.81655 3.99251 9.93835C4.03266 10.0601 4.03757 10.1908 4.00668 10.3153L2.95039 14.477C2.77043 15.181 3.52157 15.7521 4.12404 15.3687L7.79367 13.0454C7.89657 12.98 8.01599 12.9452 8.13794 12.9452C8.25988 12.9452 8.3793 12.98 8.48221 13.0454V13.0454Z" fill="#E0E0E0"/>
</svg>
