<svg width="60" height="60" viewBox="0 0 60 60" fill="none" xmlns="http://www.w3.org/2000/svg">
<circle cx="30" cy="30" r="30" fill="#FF9F0D"/>
<path d="M39.3889 29.3602L25.8911 21.1113C25.7774 21.0418 25.6473 21.0038 25.514 21.0014C25.3808 20.9989 25.2493 21.0319 25.1331 21.0971C25.0169 21.1622 24.9202 21.2572 24.8528 21.3722C24.7855 21.4871 24.75 21.618 24.75 21.7512V38.2491C24.75 38.3823 24.7855 38.5132 24.8528 38.6281C24.9202 38.7431 25.0169 38.8381 25.1331 38.9032C25.2493 38.9684 25.3808 39.0015 25.514 38.999C25.6473 38.9965 25.7774 38.9585 25.8911 38.889L39.3889 30.6401C39.4985 30.5731 39.5891 30.4791 39.652 30.367C39.7148 30.255 39.7478 30.1286 39.7478 30.0002C39.7478 29.8717 39.7148 29.7454 39.652 29.6333C39.5891 29.5212 39.4985 29.4272 39.3889 29.3602Z" stroke="white" stroke-width="1.875" stroke-linecap="round" stroke-linejoin="round"/>
</svg>
