<svg width="12" height="10" viewBox="0 0 12 10" fill="none" xmlns="http://www.w3.org/2000/svg">
<path d="M5.88867 4.27734C5.625 4.54102 5.625 4.98047 5.88867 5.27344L9.87305 9.25781C10.166 9.52148 10.6055 9.52148 10.8691 9.25781L11.543 8.58398C11.8066 8.29102 11.8066 7.85156 11.543 7.58789L8.70117 4.74609L11.543 1.93359C11.8066 1.66992 11.8066 1.23047 11.543 0.9375L10.8691 0.292969C10.6055 0 10.166 0 9.87305 0.292969L5.88867 4.27734ZM0.263672 5.27344L4.24805 9.25781C4.54102 9.52148 4.98047 9.52148 5.24414 9.25781L5.91797 8.58398C6.18164 8.32031 6.18164 7.85156 5.91797 7.58789L3.07617 4.77539L5.91797 1.93359C6.18164 1.66992 6.18164 1.23047 5.91797 0.9375L5.24414 0.292969C4.98047 0 4.51172 0 4.24805 0.292969L0.263672 4.27734C0 4.54102 0 4.98047 0.263672 5.27344Z" fill="#FF9F0D"/>
</svg>
