<svg width="18" height="18" viewBox="0 0 18 18" fill="none" xmlns="http://www.w3.org/2000/svg">
<path d="M8.98826 14.7665C8.98826 14.7665 1.96631 10.9382 1.96631 6.28949C1.96645 5.46786 2.25888 4.67164 2.79388 4.03619C3.32887 3.40075 4.07341 2.96531 4.90091 2.8039C5.72841 2.6425 6.58779 2.76509 7.33294 3.15084C8.07809 3.53659 8.66301 4.16168 8.98826 4.91984L8.98825 4.91984C9.3135 4.16168 9.89842 3.53659 10.6436 3.15084C11.3887 2.76509 12.2481 2.6425 13.0756 2.8039C13.9031 2.96531 14.6476 3.40075 15.1826 4.03619C15.7176 4.67164 16.0101 5.46786 16.0102 6.28949C16.0102 10.9382 8.98826 14.7665 8.98826 14.7665Z" stroke="#FF9F0D" stroke-width="1.5" stroke-linecap="round" stroke-linejoin="round"/>
</svg>
