<svg width="18" height="18" viewBox="0 0 18 18" fill="none" xmlns="http://www.w3.org/2000/svg">
<path d="M13.763 14.7663C14.8489 14.7663 15.7292 13.9093 15.7292 12.8521C15.7292 11.795 14.8489 10.938 13.763 10.938C12.6771 10.938 11.7969 11.795 11.7969 12.8521C11.7969 13.9093 12.6771 14.7663 13.763 14.7663Z" stroke="#FF9F0D" stroke-width="1.5" stroke-linecap="round" stroke-linejoin="round"/>
<path d="M13.7634 10.9381L13.7633 8.19548C13.7633 7.32524 13.4081 6.49066 12.7761 5.87531L10.1118 3.28149" stroke="#FF9F0D" stroke-width="1.5" stroke-linecap="round" stroke-linejoin="round"/>
<path d="M10.1118 6.016V3.28149H12.9206" stroke="#FF9F0D" stroke-width="1.5" stroke-linecap="round" stroke-linejoin="round"/>
<path d="M4.21322 6.56293C5.29909 6.56293 6.17936 5.70593 6.17936 4.64877C6.17936 3.59162 5.29909 2.73462 4.21322 2.73462C3.12734 2.73462 2.24707 3.59162 2.24707 4.64877C2.24707 5.70593 3.12734 6.56293 4.21322 6.56293Z" stroke="#FF9F0D" stroke-width="1.5" stroke-linecap="round" stroke-linejoin="round"/>
<path d="M4.21338 6.56274L4.21349 9.30538C4.21353 10.1756 4.56864 11.0102 5.2007 11.6256L7.86496 14.2194" stroke="#FF9F0D" stroke-width="1.5" stroke-linecap="round" stroke-linejoin="round"/>
<path d="M7.86444 11.4849V14.2194H5.05566" stroke="#FF9F0D" stroke-width="1.5" stroke-linecap="round" stroke-linejoin="round"/>
</svg>
