<svg width="10" height="9" viewBox="0 0 10 9" fill="none" xmlns="http://www.w3.org/2000/svg">
<path d="M9.5839 3.21503L6.55646 2.79251L5.19993 0.147892C5.17041 0.102625 5.12941 0.065307 5.08077 0.0394388C5.03213 0.0135706 4.97746 0 4.92187 0C4.86628 0 4.8116 0.0135706 4.76296 0.0394388C4.71432 0.065307 4.67332 0.102625 4.6438 0.147892L3.28727 2.79612L0.261084 3.21503C0.206263 3.2202 0.154116 3.2403 0.110773 3.27297C0.0674294 3.30564 0.0346914 3.34952 0.0164061 3.39946C-0.00187909 3.4494 -0.00495158 3.50331 0.00754978 3.55487C0.0200511 3.60642 0.0476068 3.65348 0.0869781 3.69051L2.28522 5.75492L1.76541 8.67039C1.75876 8.72413 1.76769 8.77859 1.79121 8.82777C1.81473 8.87694 1.85194 8.91891 1.89872 8.94905C1.9455 8.97919 2.00003 8.99632 2.0563 8.99855C2.11257 9.00078 2.16838 8.98802 2.21759 8.96169L4.92187 7.59424L7.62489 8.9629C7.6741 8.98923 7.72991 9.00198 7.78618 8.99975C7.84245 8.99752 7.89698 8.98039 7.94376 8.95025C7.99054 8.92012 8.02775 8.87815 8.05127 8.82897C8.07479 8.7798 8.08372 8.72533 8.07707 8.67159L7.55851 5.75492L9.75675 3.69051C9.79613 3.65348 9.82368 3.60642 9.83618 3.55487C9.84868 3.50331 9.84561 3.4494 9.82733 3.39946C9.80904 3.34952 9.7763 3.30564 9.73296 3.27297C9.68962 3.2403 9.63747 3.2202 9.58265 3.21503H9.5839Z" fill="#E0E0E0"/>
</svg>
