<svg width="18" height="18" viewBox="0 0 18 18" fill="none" xmlns="http://www.w3.org/2000/svg">
<path d="M14.6649 14.7663H3.3119C3.17365 14.7663 3.04026 14.7167 2.93725 14.627C2.83424 14.5372 2.76884 14.4136 2.75358 14.2798L1.7549 5.52942C1.74618 5.45297 1.75411 5.37559 1.77819 5.30234C1.80227 5.22908 1.84195 5.16159 1.89464 5.10428C1.94733 5.04697 2.01185 5.00112 2.08397 4.96973C2.1561 4.93834 2.23422 4.92212 2.31322 4.92212H15.6636C15.7426 4.92212 15.8207 4.93834 15.8929 4.96973C15.965 5.00112 16.0295 5.04697 16.0822 5.10428C16.1349 5.16159 16.1746 5.22908 16.1986 5.30234C16.2227 5.37559 16.2307 5.45297 16.2219 5.52942L15.2233 14.2798C15.208 14.4136 15.1426 14.5372 15.0396 14.627C14.9366 14.7167 14.8032 14.7663 14.6649 14.7663Z" stroke="white" stroke-width="1.5" stroke-linecap="round" stroke-linejoin="round"/>
<path d="M6.1792 7.10961V4.92201C6.1792 4.19677 6.47512 3.50124 7.00187 2.98842C7.52862 2.4756 8.24304 2.1875 8.98798 2.1875C9.73291 2.1875 10.4473 2.4756 10.9741 2.98842C11.5008 3.50124 11.7968 4.19677 11.7968 4.92201V7.10961" stroke="white" stroke-width="1.5" stroke-linecap="round" stroke-linejoin="round"/>
</svg>
