<svg width="24" height="24" viewBox="0 0 24 24" fill="none" xmlns="http://www.w3.org/2000/svg">
<path d="M23.3522 8.5713L15.9755 7.44487L12.6702 0.394281C12.5983 0.273599 12.4984 0.174109 12.3799 0.105144C12.2614 0.0361795 12.1281 0 11.9927 0C11.8572 0 11.724 0.0361795 11.6055 0.105144C11.487 0.174109 11.3871 0.273599 11.3151 0.394281L8.0098 7.4545L0.63616 8.5713C0.502581 8.58508 0.37552 8.63867 0.269909 8.72578C0.164299 8.81288 0.0845293 8.92987 0.0399754 9.063C-0.0045786 9.19613 -0.0120651 9.33987 0.0183959 9.47732C0.0488568 9.61477 0.115999 9.74022 0.211932 9.83893L5.5682 15.3427L4.30162 23.1154C4.28541 23.2586 4.30716 23.4038 4.36448 23.5349C4.4218 23.666 4.51245 23.7779 4.62643 23.8583C4.74041 23.9386 4.87329 23.9843 5.0104 23.9902C5.1475 23.9962 5.2835 23.9622 5.40339 23.892L11.9927 20.2463L18.5789 23.8952C18.6988 23.9654 18.8348 23.9994 18.9719 23.9934C19.109 23.9875 19.2419 23.9418 19.3559 23.8615C19.4698 23.7811 19.5605 23.6692 19.6178 23.5381C19.6751 23.407 19.6969 23.2618 19.6807 23.1186L18.4171 15.3427L23.7734 9.83893C23.8693 9.74022 23.9365 9.61477 23.9669 9.47732C23.9974 9.33987 23.9899 9.19613 23.9454 9.063C23.9008 8.92987 23.821 8.81288 23.7154 8.72578C23.6098 8.63867 23.4828 8.58508 23.3492 8.5713H23.3522Z" fill="#E0E0E0"/>
</svg>
