<svg width="6" height="11" viewBox="0 0 6 11" fill="none" xmlns="http://www.w3.org/2000/svg">
<mask id="path-1-inside-1_308_11797" fill="white">
<path d="M5.11328 3.60938L4.91992 5.5H3.39453V11H1.13867V5.5H0V3.60938H1.11719V2.4707C1.11719 2.08398 1.15299 1.74023 1.22461 1.43945C1.31055 1.12435 1.45378 0.866536 1.6543 0.666016C1.85482 0.451172 2.10547 0.286458 2.40625 0.171875C2.72135 0.0572917 3.10807 0 3.56641 0H5.0918V1.89062H4.14648C3.96029 1.89062 3.81706 1.91211 3.7168 1.95508C3.61654 1.98372 3.53776 2.03385 3.48047 2.10547C3.4375 2.16276 3.40885 2.24154 3.39453 2.3418C3.38021 2.42773 3.37305 2.53516 3.37305 2.66406V3.60938H5.0918H5.11328Z"/>
</mask>
<path d="M5.11328 3.60938L4.91992 5.5H3.39453V11H1.13867V5.5H0V3.60938H1.11719V2.4707C1.11719 2.08398 1.15299 1.74023 1.22461 1.43945C1.31055 1.12435 1.45378 0.866536 1.6543 0.666016C1.85482 0.451172 2.10547 0.286458 2.40625 0.171875C2.72135 0.0572917 3.10807 0 3.56641 0H5.0918V1.89062H4.14648C3.96029 1.89062 3.81706 1.91211 3.7168 1.95508C3.61654 1.98372 3.53776 2.03385 3.48047 2.10547C3.4375 2.16276 3.40885 2.24154 3.39453 2.3418C3.38021 2.42773 3.37305 2.53516 3.37305 2.66406V3.60938H5.0918H5.11328Z" fill="white"/>
<path d="M5.11328 3.60938L6.10809 3.71112L6.22077 2.60938H5.11328V3.60938ZM4.91992 5.5V6.5H5.82287L5.91473 5.60174L4.91992 5.5ZM3.39453 5.5V4.5H2.39453V5.5H3.39453ZM3.39453 11V12H4.39453V11H3.39453ZM1.13867 11H0.138672V12H1.13867V11ZM1.13867 5.5H2.13867V4.5H1.13867V5.5ZM0 5.5H-1V6.5H0V5.5ZM0 3.60938V2.60938H-1V3.60938H0ZM1.11719 3.60938V4.60938H2.11719V3.60938H1.11719ZM1.22461 1.43945L0.259845 1.17634L0.255568 1.19202L0.251803 1.20783L1.22461 1.43945ZM1.6543 0.666016L2.3614 1.37312L2.37359 1.36093L2.38535 1.34833L1.6543 0.666016ZM2.40625 0.171875L2.06451 -0.767918L2.05736 -0.76532L2.05025 -0.762613L2.40625 0.171875ZM5.0918 0H6.0918V-1H5.0918V0ZM5.0918 1.89062V2.89062H6.0918V1.89062H5.0918ZM3.7168 1.95508L3.99152 2.9166L4.05246 2.89919L4.11072 2.87422L3.7168 1.95508ZM3.48047 2.10547L2.6996 1.48077L2.68984 1.49297L2.68047 1.50547L3.48047 2.10547ZM3.39453 2.3418L4.38093 2.5062L4.38284 2.49473L4.38448 2.48322L3.39453 2.3418ZM3.37305 3.60938H2.37305V4.60938H3.37305V3.60938ZM4.11847 3.50763L3.92511 5.39826L5.91473 5.60174L6.10809 3.71112L4.11847 3.50763ZM4.91992 4.5H3.39453V6.5H4.91992V4.5ZM2.39453 5.5V11H4.39453V5.5H2.39453ZM3.39453 10H1.13867V12H3.39453V10ZM2.13867 11V5.5H0.138672V11H2.13867ZM1.13867 4.5H0V6.5H1.13867V4.5ZM1 5.5V3.60938H-1V5.5H1ZM0 4.60938H1.11719V2.60938H0V4.60938ZM2.11719 3.60938V2.4707H0.117188V3.60938H2.11719ZM2.11719 2.4707C2.11719 2.14345 2.14771 1.87984 2.19742 1.67107L0.251803 1.20783C0.158281 1.60063 0.117188 2.02452 0.117188 2.4707H2.11719ZM2.18937 1.70257C2.23656 1.52956 2.30156 1.43297 2.3614 1.37312L0.94719 -0.0410911C0.605991 0.300108 0.384536 0.719138 0.259845 1.17634L2.18937 1.70257ZM2.38535 1.34833C2.47211 1.25538 2.5903 1.17187 2.76225 1.10636L2.05025 -0.762613C1.62064 -0.59895 1.23752 -0.353033 0.923242 -0.0163026L2.38535 1.34833ZM2.74799 1.11167C2.92151 1.04857 3.18479 1 3.56641 1V-1C3.03135 -1 2.52119 -0.933986 2.06451 -0.767918L2.74799 1.11167ZM3.56641 1H5.0918V-1H3.56641V1ZM4.0918 0V1.89062H6.0918V0H4.0918ZM5.0918 0.890625H4.14648V2.89062H5.0918V0.890625ZM4.14648 0.890625C3.90723 0.890625 3.60585 0.914661 3.32288 1.03593L4.11072 2.87422C4.08477 2.88534 4.06558 2.89103 4.05594 2.89359C4.04618 2.89617 4.04293 2.8964 4.04775 2.89567C4.05245 2.89497 4.0629 2.89365 4.07997 2.89253C4.09696 2.89143 4.11895 2.89062 4.14648 2.89062V0.890625ZM3.44208 0.993554C3.17063 1.07111 2.90386 1.22544 2.6996 1.48077L4.26134 2.73016C4.17166 2.84227 4.06245 2.89634 3.99152 2.9166L3.44208 0.993554ZM2.68047 1.50547C2.50349 1.74144 2.43339 1.99869 2.40458 2.20038L4.38448 2.48322C4.38431 2.48439 4.37151 2.58409 4.28047 2.70547L2.68047 1.50547ZM2.40814 2.1774C2.38158 2.33675 2.37305 2.50356 2.37305 2.66406H4.37305C4.37305 2.56675 4.37884 2.51872 4.38093 2.5062L2.40814 2.1774ZM2.37305 2.66406V3.60938H4.37305V2.66406H2.37305ZM3.37305 4.60938H5.0918V2.60938H3.37305V4.60938ZM5.0918 4.60938H5.11328V2.60938H5.0918V4.60938Z" fill="white" mask="url(#path-1-inside-1_308_11797)"/>
</svg>
