<svg width="80" height="80" viewBox="0 0 80 80" fill="none" xmlns="http://www.w3.org/2000/svg">
<g filter="url(#filter0_d_4466_1789)">
<path d="M27.5 7.5V17.5" stroke="#333333" stroke-width="2" stroke-linecap="round" stroke-linejoin="round"/>
<path d="M37.5 7.5V17.5" stroke="#333333" stroke-width="2" stroke-linecap="round" stroke-linejoin="round"/>
<path d="M47.5 7.5V17.5" stroke="#333333" stroke-width="2" stroke-linecap="round" stroke-linejoin="round"/>
<path d="M10 67.5H65" stroke="#333333" stroke-width="2" stroke-linecap="round" stroke-linejoin="round"/>
<path d="M26.0313 67.5C21.2465 65.3045 17.1924 61.7817 14.3507 57.3501C11.5089 52.9186 9.99892 47.7644 10 42.5V27.5H65V42.5C65.0011 47.7644 63.4911 52.9186 60.6493 57.3501C57.8076 61.7817 53.7535 65.3045 48.9687 67.5" stroke="#333333" stroke-width="2" stroke-linecap="round" stroke-linejoin="round"/>
<path d="M65 27.5C67.6522 27.5 70.1957 28.5536 72.0711 30.4289C73.9464 32.3043 75 34.8478 75 37.5V40C75 42.6522 73.9464 45.1957 72.0711 47.0711C70.1957 48.9464 67.6522 50 65 50H63.9375" stroke="#333333" stroke-width="2" stroke-linecap="round" stroke-linejoin="round"/>
</g>
<defs>
<filter id="filter0_d_4466_1789" x="-4" y="0" width="88" height="88" filterUnits="userSpaceOnUse" color-interpolation-filters="sRGB">
<feFlood flood-opacity="0" result="BackgroundImageFix"/>
<feColorMatrix in="SourceAlpha" type="matrix" values="0 0 0 0 0 0 0 0 0 0 0 0 0 0 0 0 0 0 127 0" result="hardAlpha"/>
<feOffset dy="4"/>
<feGaussianBlur stdDeviation="2"/>
<feComposite in2="hardAlpha" operator="out"/>
<feColorMatrix type="matrix" values="0 0 0 0 0 0 0 0 0 0 0 0 0 0 0 0 0 0 0.25 0"/>
<feBlend mode="normal" in2="BackgroundImageFix" result="effect1_dropShadow_4466_1789"/>
<feBlend mode="normal" in="SourceGraphic" in2="effect1_dropShadow_4466_1789" result="shape"/>
</filter>
</defs>
</svg>
